<?xml version="1.0" encoding="UTF-8" standalone="no"?>
<!DOCTYPE svg PUBLIC "-//W3C//DTD SVG 1.1//EN" "http://www.w3.org/Graphics/SVG/1.1/DTD/svg11.dtd">
<svg width="100%" height="100%" viewBox="0 0 800 800" version="1.1" xmlns="http://www.w3.org/2000/svg" xmlns:xlink="http://www.w3.org/1999/xlink" xml:space="preserve" xmlns:serif="http://www.serif.com/" style="fill-rule:evenodd;clip-rule:evenodd;stroke-linejoin:round;stroke-miterlimit:2;">
    <g transform="matrix(1,0,0,1,-833.747,0)">
        <g id="Artboard1" transform="matrix(1,0,0,1,833.747,0)">
            <rect x="0" y="0" width="800" height="800" style="fill:none;"/>
            <g>
                <g transform="matrix(0.77581,0,0,0.654664,273.934,245.427)">
                    <g transform="matrix(0.878634,0,0,1.11121,-1.13164,-60.0064)">
                        <rect x="106.342" y="152.192" width="170.72" height="539.95" style="fill:rgb(31,194,222);fill-opacity:0.5;"/>
                    </g>
                    <g transform="matrix(0.878634,0,0,1.11121,-47.8381,-115.304)">
                        <path d="M277.062,152.192L106.342,152.192L106.342,692.142L277.062,692.142L277.062,152.192ZM130.792,175.102L130.792,669.232L252.611,669.232L252.611,175.102L130.792,175.102Z"/>
                    </g>
                </g>
                <g transform="matrix(0.742493,0,0,0.742493,233.821,-62.5562)">
                    <circle cx="202.381" cy="305.723" r="94.277" style="fill:rgb(244,76,116);"/>
                </g>
            </g>
        </g>
    </g>
</svg>
